#Comment line ignore any data following # character 
#Hierarchical Translation and Rotation (.htr) file 
[Header]	
#Header keywords are followed by a single value 
FileType HTR		#Single word string
DataType HTRS		#Translation followed by rotation and scale data
FileVersion 1		#integer
NumSegments 84		#integer
NumFrames 2		#integer
DataFrameRate 30		#integer, data frame rate in this file
EulerRotationOrder ZYX
CalibrationUnits mm
RotationUnits Degrees
GlobalAxisofGravity Y
BoneLengthAxis Y
ScaleFactor 1.00
[SegmentNames&Hierarchy]
#CHILD	PARENT
MASTER GLOBAL
root MASTER
chest root
L_mid_tent01 root
R_mid_tent01 root
spine01 root
Bip01_Neck chest
L_humerus chest
R_humerus chest
weapon_bone chest
Bip01_Head Bip01_Neck
eye_left_bone Bip01_Head
eye_right_bone Bip01_Head
L_forearm L_humerus
L_front_hand L_forearm
L_weapon_bone L_forearm
L_front_hand01_01 L_front_hand
L_front_hand02_01 L_front_hand
L_front_hand03_01 L_front_hand
L_front_hand01_02 L_front_hand01_01
L_front_hand02_02 L_front_hand02_01
L_front_hand03_02 L_front_hand03_01
R_forearm R_humerus
R_front_hand R_forearm
R_weapon_bone R_forearm
R_front_hand01_01 R_front_hand
R_front_hand02_01 R_front_hand
R_front_hand03_01 R_front_hand
R_front_hand01_02 R_front_hand01_01
R_front_hand02_02 R_front_hand02_01
R_front_hand03_02 R_front_hand03_01
null_rope01_connect L_mid_tent01
Rope1_Seg01 null_rope01_connect
Rope1_Seg02 Rope1_Seg01
Rope1_Seg03 Rope1_Seg02
Rope1_Seg04 Rope1_Seg03
Rope1_Seg05 Rope1_Seg04
Rope1_Seg06 Rope1_Seg05
Rope1_Seg07 Rope1_Seg06
Rope1_Seg09 Rope1_Seg07
L_mid_hand01 Rope1_Seg09
L_mid_hand02 Rope1_Seg09
L_mid_hand03 Rope1_Seg09
null_rope02_connect R_mid_tent01
Rope2_Seg01 null_rope02_connect
Rope2_Seg02 Rope2_Seg01
Rope2_Seg03 Rope2_Seg02
Rope2_Seg04 Rope2_Seg03
Rope2_Seg05 Rope2_Seg04
Rope2_Seg06 Rope2_Seg05
Rope2_Seg07 Rope2_Seg06
Rope2_Seg09 Rope2_Seg07
R_mid_hand01 Rope2_Seg09
R_mid_hand02 Rope2_Seg09
R_mid_hand03 Rope2_Seg09
spine02 spine01
spine03 spine02
pelvis spine03
null_rope03_connect pelvis
null_rope04_connect pelvis
Rope3_Seg01 null_rope03_connect
Rope3_Seg02 Rope3_Seg01
Rope3_Seg03 Rope3_Seg02
Rope3_Seg04 Rope3_Seg03
Rope3_Seg05 Rope3_Seg04
Rope3_Seg06 Rope3_Seg05
Rope3_Seg07 Rope3_Seg06
Rope3_Seg08 Rope3_Seg07
Rope3_Seg09 Rope3_Seg08
R_rear_hand01 Rope3_Seg09
R_rear_hand02 Rope3_Seg09
R_rear_hand03 Rope3_Seg09
Rope4_Seg01 null_rope04_connect
Rope4_Seg02 Rope4_Seg01
Rope4_Seg03 Rope4_Seg02
Rope4_Seg04 Rope4_Seg03
Rope4_Seg05 Rope4_Seg04
Rope4_Seg06 Rope4_Seg05
Rope4_Seg07 Rope4_Seg06
Rope4_Seg08 Rope4_Seg07
Rope4_Seg09 Rope4_Seg08
L_rear_hand01 Rope4_Seg09
L_rear_hand02 Rope4_Seg09
L_rear_hand03 Rope4_Seg09
[BasePosition]
#SegmentName Tx, Ty, Tz, Rx, Ry, Rz, BoneLength
MASTER 0.000000 0.000000 0.000000 -90.000000 0.000000 0.000000 10.000000 
root 0.000000 0.000000 0.000000 0.000000 0.000000 0.000000 10.000000 
chest 0.000000 0.000000 0.000000 0.000000 0.000000 0.000000 10.000000 
L_mid_tent01 0.000000 0.000000 0.000000 0.000000 0.000000 0.000000 10.000000 
R_mid_tent01 0.000000 0.000000 0.000000 0.000000 0.000000 0.000000 10.000000 
spine01 0.000000 0.000000 0.000000 0.000000 0.000000 0.000000 10.000000 
Bip01_Neck 0.000000 0.000000 0.000000 0.000000 0.000000 0.000000 10.000000 
L_humerus 0.000000 0.000000 0.000000 0.000000 0.000000 0.000000 10.000000 
R_humerus 0.000000 0.000000 0.000000 0.000000 0.000000 0.000000 10.000000 
weapon_bone 0.000000 0.000000 0.000000 0.000000 0.000000 0.000000 10.000000 
Bip01_Head 0.000000 0.000000 0.000000 0.000000 0.000000 0.000000 10.000000 
eye_left_bone 0.000000 0.000000 0.000000 0.000000 0.000000 0.000000 10.000000 
eye_right_bone 0.000000 0.000000 0.000000 0.000000 0.000000 0.000000 10.000000 
L_forearm 0.000000 0.000000 0.000000 0.000000 0.000000 0.000000 10.000000 
L_front_hand 0.000000 0.000000 0.000000 0.000000 0.000000 0.000000 10.000000 
L_weapon_bone 0.000000 0.000000 0.000000 0.000000 0.000000 0.000000 10.000000 
L_front_hand01_01 0.000000 0.000000 0.000000 0.000000 0.000000 0.000000 10.000000 
L_front_hand02_01 0.000000 0.000000 0.000000 0.000000 0.000000 0.000000 10.000000 
L_front_hand03_01 0.000000 0.000000 0.000000 0.000000 0.000000 0.000000 10.000000 
L_front_hand01_02 0.000000 0.000000 0.000000 0.000000 0.000000 0.000000 10.000000 
L_front_hand02_02 0.000000 0.000000 0.000000 0.000000 0.000000 0.000000 10.000000 
L_front_hand03_02 0.000000 0.000000 0.000000 0.000000 0.000000 0.000000 10.000000 
R_forearm 0.000000 0.000000 0.000000 0.000000 0.000000 0.000000 10.000000 
R_front_hand 0.000000 0.000000 0.000000 0.000000 0.000000 0.000000 10.000000 
R_weapon_bone 0.000000 0.000000 0.000000 0.000000 0.000000 0.000000 10.000000 
R_front_hand01_01 0.000000 0.000000 0.000000 0.000000 0.000000 0.000000 10.000000 
R_front_hand02_01 0.000000 0.000000 0.000000 0.000000 0.000000 0.000000 10.000000 
R_front_hand03_01 0.000000 0.000000 0.000000 0.000000 0.000000 0.000000 10.000000 
R_front_hand01_02 0.000000 0.000000 0.000000 0.000000 0.000000 0.000000 10.000000 
R_front_hand02_02 0.000000 0.000000 0.000000 0.000000 0.000000 0.000000 10.000000 
R_front_hand03_02 0.000000 0.000000 0.000000 0.000000 0.000000 0.000000 10.000000 
null_rope01_connect 0.000000 0.000000 0.000000 0.000000 0.000000 0.000000 10.000000 
Rope1_Seg01 0.000000 0.000000 0.000000 0.000000 0.000000 0.000000 10.000000 
Rope1_Seg02 0.000000 0.000000 0.000000 0.000000 0.000000 0.000000 10.000000 
Rope1_Seg03 0.000000 0.000000 0.000000 0.000000 0.000000 0.000000 10.000000 
Rope1_Seg04 0.000000 0.000000 0.000000 0.000000 0.000000 0.000000 10.000000 
Rope1_Seg05 0.000000 0.000000 0.000000 0.000000 0.000000 0.000000 10.000000 
Rope1_Seg06 0.000000 0.000000 0.000000 0.000000 0.000000 0.000000 10.000000 
Rope1_Seg07 0.000000 0.000000 0.000000 0.000000 0.000000 0.000000 10.000000 
Rope1_Seg09 0.000000 0.000000 0.000000 0.000000 0.000000 0.000000 10.000000 
L_mid_hand01 0.000000 0.000000 0.000000 0.000000 0.000000 0.000000 10.000000 
L_mid_hand02 0.000000 0.000000 0.000000 0.000000 0.000000 0.000000 10.000000 
L_mid_hand03 0.000000 0.000000 0.000000 0.000000 0.000000 0.000000 10.000000 
null_rope02_connect 0.000000 0.000000 0.000000 0.000000 0.000000 0.000000 10.000000 
Rope2_Seg01 0.000000 0.000000 0.000000 0.000000 0.000000 0.000000 10.000000 
Rope2_Seg02 0.000000 0.000000 0.000000 0.000000 0.000000 0.000000 10.000000 
Rope2_Seg03 0.000000 0.000000 0.000000 0.000000 0.000000 0.000000 10.000000 
Rope2_Seg04 0.000000 0.000000 0.000000 0.000000 0.000000 0.000000 10.000000 
Rope2_Seg05 0.000000 0.000000 0.000000 0.000000 0.000000 0.000000 10.000000 
Rope2_Seg06 0.000000 0.000000 0.000000 0.000000 0.000000 0.000000 10.000000 
Rope2_Seg07 0.000000 0.000000 0.000000 0.000000 0.000000 0.000000 10.000000 
Rope2_Seg09 0.000000 0.000000 0.000000 0.000000 0.000000 0.000000 10.000000 
R_mid_hand01 0.000000 0.000000 0.000000 0.000000 0.000000 0.000000 10.000000 
R_mid_hand02 0.000000 0.000000 0.000000 0.000000 0.000000 0.000000 10.000000 
R_mid_hand03 0.000000 0.000000 0.000000 0.000000 0.000000 0.000000 10.000000 
spine02 0.000000 0.000000 0.000000 0.000000 0.000000 0.000000 10.000000 
spine03 0.000000 0.000000 0.000000 0.000000 0.000000 0.000000 10.000000 
pelvis 0.000000 0.000000 0.000000 0.000000 0.000000 0.000000 10.000000 
null_rope03_connect 0.000000 0.000000 0.000000 0.000000 0.000000 0.000000 10.000000 
null_rope04_connect 0.000000 0.000000 0.000000 0.000000 0.000000 0.000000 10.000000 
Rope3_Seg01 0.000000 0.000000 0.000000 0.000000 0.000000 0.000000 10.000000 
Rope3_Seg02 0.000000 0.000000 0.000000 0.000000 0.000000 0.000000 10.000000 
Rope3_Seg03 0.000000 0.000000 0.000000 0.000000 0.000000 0.000000 10.000000 
Rope3_Seg04 0.000000 0.000000 0.000000 0.000000 0.000000 0.000000 10.000000 
Rope3_Seg05 0.000000 0.000000 0.000000 0.000000 0.000000 0.000000 10.000000 
Rope3_Seg06 0.000000 0.000000 0.000000 0.000000 0.000000 0.000000 10.000000 
Rope3_Seg07 0.000000 0.000000 0.000000 0.000000 0.000000 0.000000 10.000000 
Rope3_Seg08 0.000000 0.000000 0.000000 0.000000 0.000000 0.000000 10.000000 
Rope3_Seg09 0.000000 0.000000 0.000000 0.000000 0.000000 0.000000 10.000000 
R_rear_hand01 0.000000 0.000000 0.000000 0.000000 0.000000 0.000000 10.000000 
R_rear_hand02 0.000000 0.000000 0.000000 0.000000 0.000000 0.000000 10.000000 
R_rear_hand03 0.000000 0.000000 0.000000 0.000000 0.000000 0.000000 10.000000 
Rope4_Seg01 0.000000 0.000000 0.000000 0.000000 0.000000 0.000000 10.000000 
Rope4_Seg02 0.000000 0.000000 0.000000 0.000000 0.000000 0.000000 10.000000 
Rope4_Seg03 0.000000 0.000000 0.000000 0.000000 0.000000 0.000000 10.000000 
Rope4_Seg04 0.000000 0.000000 0.000000 0.000000 0.000000 0.000000 10.000000 
Rope4_Seg05 0.000000 0.000000 0.000000 0.000000 0.000000 0.000000 10.000000 
Rope4_Seg06 0.000000 0.000000 0.000000 0.000000 0.000000 0.000000 10.000000 
Rope4_Seg07 0.000000 0.000000 0.000000 0.000000 0.000000 0.000000 10.000000 
Rope4_Seg08 0.000000 0.000000 0.000000 0.000000 0.000000 0.000000 10.000000 
Rope4_Seg09 0.000000 0.000000 0.000000 0.000000 0.000000 0.000000 10.000000 
L_rear_hand01 0.000000 0.000000 0.000000 0.000000 0.000000 0.000000 10.000000 
L_rear_hand02 0.000000 0.000000 0.000000 0.000000 0.000000 0.000000 10.000000 
L_rear_hand03 0.000000 0.000000 0.000000 0.000000 0.000000 0.000000 10.000000 
#Beginning of Data. Separated by tabs
#Fr	Tx	Ty	Tz	Rx	Ry	Rz	SF
[MASTER]
45 0.000000 0.000000 0.000000 0.001660 0.001660 0.001660 0.000000
46 0.000000 0.000000 0.000000 0.001660 0.001660 0.001660 0.000000
[root]
45 -16.502245 -199.343781 1093.534668 -85.747307 -61.785316 -93.080688 1111.678223
46 -16.502245 -199.343781 1093.534668 -85.747307 -61.785316 -93.080688 1111.678223
[chest]
45 -84.512650 -34.090519 0.000000 2.270659 -1.395424 -121.610580 91.129311
46 -84.512650 -34.090519 0.000000 2.282007 -1.416371 -121.911034 91.129311
[L_mid_tent01]
45 27.299500 22.177483 -249.917984 -17.031097 1.191898 125.424210 252.380859
46 27.299500 22.177483 -249.917984 -17.024151 1.123629 124.967285 252.380859
[R_mid_tent01]
45 23.228794 24.509907 226.238495 -174.922928 1.884120 115.394409 228.744751
46 23.228794 24.509907 226.238495 -174.919037 1.880540 114.933426 228.744751
[spine01]
45 -0.361383 -0.195265 0.000000 -0.000001 -0.000007 22.052340 0.410763
46 -0.361383 -0.195265 0.000000 -0.000001 -0.000007 22.052340 0.410763
[Bip01_Neck]
45 165.484543 71.581718 0.000119 175.896118 1.177290 24.871183 180.302734
46 165.484543 71.581718 0.000119 175.896118 1.177290 24.871183 180.302734
[L_humerus]
45 -13.983130 -135.272980 -120.471481 -91.668335 0.804969 -167.458282 181.680161
46 -13.983130 -135.272980 -120.471481 -91.668335 0.804969 -167.458282 181.680161
[R_humerus]
45 -13.983309 -135.273102 125.287651 103.000740 1.729733 -169.272232 184.909012
46 -13.983309 -135.273102 125.287651 103.000740 1.729733 -169.272232 184.909012
[weapon_bone]
45 235.964890 -300.705902 0.000000 0.000000 -89.951546 -128.212341 382.234833
46 235.964890 -300.705902 0.000000 0.000000 -89.951546 -128.212341 382.234833
[Bip01_Head]
45 102.819794 23.735437 5.410404 3.150732 3.423701 -20.839092 105.662453
46 102.819786 23.735435 5.410404 3.150732 3.423701 -20.839092 105.662445
[eye_left_bone]
45 -24.626970 125.451866 -64.772606 0.000000 -90.000000 -99.840431 143.318359
46 -24.626970 125.451866 -64.772606 0.000000 -90.000000 -99.840431 143.318359
[eye_right_bone]
45 -24.626970 125.451866 64.327362 0.000000 -89.960434 80.159386 143.117676
46 -24.626970 125.451866 64.327362 0.000000 -89.960434 80.159386 143.117676
[L_forearm]
45 322.776093 0.000000 -0.000119 0.000017 0.002347 -89.149834 322.776093
46 322.776093 0.000000 -0.000119 0.000017 0.002347 -89.149834 322.776093
[L_front_hand]
45 241.149185 -0.042021 -3.300071 -177.733505 -0.055646 -80.053986 241.171753
46 241.149185 -0.042021 -3.300071 -177.733505 -0.055731 -80.049675 241.171753
[L_weapon_bone]
45 156.183838 0.000000 0.000000 0.000014 0.000007 0.000001 156.183838
46 156.183838 0.000000 0.000000 0.000014 0.000007 0.000001 156.183838
[L_front_hand01_01]
45 86.095154 20.947098 -0.655860 0.405585 -0.442306 -4.620490 88.609184
46 86.095154 20.947098 -0.655860 0.405585 -0.442306 -4.620490 88.609184
[L_front_hand02_01]
45 86.935165 -11.437475 24.513514 116.959450 3.630817 1.495453 91.046425
46 86.935165 -11.437475 24.513514 116.959450 3.630817 1.495453 91.046425
[L_front_hand03_01]
45 86.637497 -14.123976 -20.424902 -118.420097 -4.656303 -0.152527 90.126129
46 86.637497 -14.123976 -20.424902 -118.420097 -4.656303 -0.152527 90.126129
[L_front_hand01_02]
45 71.020905 -0.000179 0.000030 0.000004 -0.000005 -8.379269 71.020905
46 71.020905 -0.000179 0.000030 0.000004 -0.000005 -8.379269 71.020905
[L_front_hand02_02]
45 71.020927 -0.000119 0.000060 -0.000005 -0.000004 -8.379259 71.020927
46 71.020927 -0.000119 0.000060 -0.000005 -0.000004 -8.379259 71.020927
[L_front_hand03_02]
45 71.020905 -0.000060 0.000060 0.000015 -0.000040 -8.379267 71.020905
46 71.020905 -0.000060 0.000060 0.000015 -0.000040 -8.379267 71.020905
[R_forearm]
45 322.776428 -0.000060 0.000030 0.207827 -0.034382 -81.364632 322.776428
46 322.776428 -0.000060 0.000030 0.207833 -0.034343 -81.385826 322.776428
[R_front_hand]
45 238.847015 -0.006795 2.210259 -1.675907 -0.421113 -92.797264 238.857239
46 238.847015 -0.006795 2.210259 -1.675963 -0.420889 -92.781906 238.857239
[R_weapon_bone]
45 155.664093 0.002503 -0.000030 0.003487 0.001180 -90.988930 155.664078
46 155.664093 0.002503 -0.000030 0.003487 0.001180 -90.988930 155.664078
[R_front_hand01_01]
45 87.624611 14.231146 22.918642 -116.960213 3.496675 -1.324139 91.683487
46 87.624611 14.231146 22.918642 -116.960213 3.496675 -1.324139 91.683487
[R_front_hand02_01]
45 89.356956 14.367283 -19.491137 118.419647 -4.257089 0.609827 92.579636
46 89.356956 14.367283 -19.491137 118.419647 -4.257089 0.609827 92.579636
[R_front_hand03_01]
45 87.286232 -22.307278 -0.143439 -0.387970 -0.231462 4.232001 90.091743
46 87.286232 -22.307278 -0.143439 -0.387970 -0.231462 4.232001 90.091743
[R_front_hand01_02]
45 71.020905 0.000060 0.000119 -0.000005 -0.000020 8.379271 71.020905
46 71.020905 0.000060 0.000119 -0.000005 -0.000020 8.379271 71.020905
[R_front_hand02_02]
45 71.020844 -0.000030 -0.000119 0.000000 -0.000021 8.379271 71.020836
46 71.020844 -0.000030 -0.000119 0.000000 -0.000021 8.379271 71.020836
[R_front_hand03_02]
45 71.020905 0.000000 0.000030 -0.000001 -0.000020 8.379275 71.020905
46 71.020905 0.000000 0.000030 -0.000001 -0.000020 8.379275 71.020905
[null_rope01_connect]
45 328.732483 0.000000 -0.000238 113.408363 -73.240646 -86.859909 328.732483
46 328.732483 0.000000 -0.000238 113.654396 -73.260620 -86.638329 328.732483
[Rope1_Seg01]
45 0.000000 0.000000 0.000000 75.513519 30.401047 85.820068 0.000000
46 0.000000 0.000000 0.000000 75.555733 31.828068 86.256050 0.000000
[Rope1_Seg02]
45 139.999863 -0.000179 0.000000 51.498707 -16.075512 53.825264 139.999863
46 139.999863 -0.000179 0.000000 50.380840 -16.571608 55.003418 139.999863
[Rope1_Seg03]
45 139.999924 0.000060 -0.000060 43.486088 8.306790 12.855864 139.999924
46 139.999924 0.000060 -0.000060 41.830189 7.794912 12.337168 139.999924
[Rope1_Seg04]
45 139.999924 -0.000060 -0.000119 47.141773 44.590038 15.054893 139.999924
46 139.999924 -0.000060 -0.000119 49.639206 43.524723 16.894966 139.999924
[Rope1_Seg05]
45 139.999832 0.000119 -0.000060 0.515780 23.915081 -12.772132 139.999832
46 139.999832 0.000119 -0.000060 0.660024 24.771141 -13.098855 139.999832
[Rope1_Seg06]
45 139.999954 0.000119 -0.000060 -0.474790 10.095501 -5.839378 139.999954
46 139.999954 0.000119 -0.000060 -0.474906 10.336684 -5.978214 139.999954
[Rope1_Seg07]
45 139.999985 0.000060 0.000000 -0.199413 3.392004 -1.943896 139.999985
46 139.999985 0.000060 0.000000 -0.206366 3.543546 -2.031888 139.999985
[Rope1_Seg09]
45 121.602913 0.000119 -0.000089 -89.793175 -1.359789 0.847147 121.602913
46 121.602913 0.000119 -0.000089 -89.793175 -1.359789 0.847147 121.602913
[L_mid_hand01]
45 103.859421 1.038730 8.195221 104.352043 0.341479 -0.444583 104.187431
46 103.859421 1.038730 8.195221 104.352036 0.341479 -0.444583 104.187431
[L_mid_hand02]
45 105.572853 -4.139662 -10.864139 -135.608444 3.905687 -3.381056 106.211075
46 105.572853 -4.139662 -10.864139 -135.608444 3.905687 -3.381056 106.211075
[L_mid_hand03]
45 104.641464 17.579376 -3.913581 -18.761518 -0.324361 2.942912 106.179977
46 104.641464 17.579376 -3.913581 -18.761518 -0.324361 2.942912 106.179977
[null_rope02_connect]
45 328.732849 0.000179 -0.000119 127.752846 84.263283 -88.688606 328.732849
46 328.732849 0.000179 -0.000119 128.205521 84.242790 -88.683990 328.732849
[Rope2_Seg01]
45 0.000076 0.000112 0.000153 -6.481155 51.634071 105.907593 0.000204
46 0.000076 0.000112 0.000153 -6.621392 51.691257 105.747276 0.000204
[Rope2_Seg02]
45 139.999741 -0.000060 -0.000119 -16.438295 -50.871128 -29.909893 139.999756
46 139.999741 -0.000060 -0.000119 -16.092920 -49.969151 -28.819246 139.999756
[Rope2_Seg03]
45 140.000107 0.000030 0.000000 -28.677471 -20.151075 -30.998882 140.000107
46 140.000107 0.000030 0.000000 -29.092850 -21.118837 -31.448961 140.000107
[Rope2_Seg04]
45 139.999802 0.000000 -0.000060 -20.232157 -11.469228 -30.046299 139.999802
46 139.999802 0.000000 -0.000060 -20.135317 -11.386364 -29.628815 139.999802
[Rope2_Seg05]
45 139.999985 -0.000060 0.000119 -12.895717 0.108506 -34.034454 139.999985
46 139.999985 -0.000060 0.000119 -13.162558 -0.165901 -34.395645 139.999985
[Rope2_Seg06]
45 139.999893 -0.000030 -0.000119 -2.289258 3.551017 -13.558580 139.999893
46 139.999893 -0.000030 -0.000119 -2.353650 3.580231 -13.739169 139.999893
[Rope2_Seg07]
45 139.999893 0.000060 -0.000060 -0.367100 1.619919 -5.415045 139.999893
46 139.999893 0.000060 -0.000060 -0.380014 1.650388 -5.522642 139.999893
[Rope2_Seg09]
45 121.338966 0.000089 -0.000060 33.793236 -1.359788 -0.847141 121.338966
46 121.338966 0.000089 -0.000060 33.793236 -1.359788 -0.847141 121.338966
[R_mid_hand01]
45 104.680779 11.144459 -10.335981 -47.384258 2.963522 5.452604 105.778534
46 104.680779 11.144459 -10.335981 -47.384258 2.963522 5.452604 105.778534
[R_mid_hand02]
45 104.070427 2.443552 8.231699 75.626297 -2.250001 1.111093 104.424065
46 104.070427 2.443552 8.231699 75.626297 -2.250001 1.111093 104.424065
[R_mid_hand03]
45 106.028137 -11.221827 -5.996406 -164.381912 2.495983 -6.140520 106.788818
46 106.028137 -11.221827 -5.996406 -164.381912 2.495983 -6.140520 106.788818
[spine02]
45 129.756927 0.001550 0.000119 -3.528983 -2.927600 47.020504 129.756927
46 129.756927 0.001550 0.000119 -3.518247 -2.940424 46.786686 129.756927
[spine03]
45 79.115631 0.000000 -0.000119 5.517989 8.340210 52.057987 79.115631
46 79.115631 0.000000 -0.000119 5.494752 8.348999 51.809986 79.115631
[pelvis]
45 169.435242 0.051022 0.000000 -7.329426 -2.857327 14.084504 169.435257
46 169.435242 0.051022 0.000000 -7.318403 -2.855076 14.061519 169.435257
[null_rope03_connect]
45 -1.257226 -2.466202 137.391083 149.660172 -84.370544 -132.442734 137.418976
46 -1.257226 -2.466202 137.391083 150.052200 -84.374680 -132.301834 137.418976
[null_rope04_connect]
45 -1.259640 -2.480268 -137.844437 149.660172 -84.370544 -132.442734 137.872513
46 -1.259640 -2.480268 -137.844437 150.052200 -84.374680 -132.301834 137.872513
[Rope3_Seg01]
45 0.000010 0.000038 -0.000114 -173.496857 76.300125 -108.671089 0.000121
46 0.000010 0.000038 -0.000114 -173.975494 76.569962 -109.043571 0.000121
[Rope3_Seg02]
45 139.999924 -0.000119 0.000060 -9.496696 -17.959574 10.086194 139.999924
46 139.999924 -0.000119 0.000060 -9.344123 -17.775106 9.924213 139.999924
[Rope3_Seg03]
45 139.999924 -0.000119 0.000119 -18.638657 -43.284290 21.048882 139.999924
46 139.999924 -0.000119 0.000119 -18.399382 -42.945007 20.774563 139.999924
[Rope3_Seg04]
45 139.999924 0.000119 0.000000 -0.957449 -24.708212 4.931546 139.999924
46 139.999924 0.000119 0.000000 -1.022375 -24.889845 5.004912 139.999924
[Rope3_Seg05]
45 139.999924 -0.000238 0.000060 8.787081 -58.033386 13.665471 139.999924
46 139.999924 -0.000238 0.000060 8.732023 -57.555962 13.402655 139.999924
[Rope3_Seg06]
45 139.999893 -0.000119 -0.000060 11.553347 -46.066456 28.555851 139.999893
46 139.999893 -0.000119 -0.000060 11.532161 -46.643887 28.761187 139.999893
[Rope3_Seg07]
45 139.999771 0.000060 -0.000119 3.094079 -5.494133 6.322981 139.999771
46 139.999771 0.000060 -0.000119 3.115535 -5.540090 6.367983 139.999771
[Rope3_Seg08]
45 139.999985 -0.000060 0.000000 1.512923 -2.020565 2.613137 139.999985
46 139.999985 -0.000060 0.000000 1.518617 -2.032013 2.626499 139.999985
[Rope3_Seg09]
45 90.185997 -0.000179 -0.000060 89.793228 -1.359877 -0.847183 90.185997
46 90.185997 -0.000179 -0.000060 89.793228 -1.359877 -0.847183 90.185997
[R_rear_hand01]
45 103.366196 -6.073594 -10.757982 -156.049316 6.070419 -2.795869 104.101845
46 103.366196 -6.073594 -10.757982 -156.049316 6.070419 -2.795869 104.101845
[R_rear_hand02]
45 100.509819 12.039542 -7.992327 -38.708435 1.958051 5.461186 101.543350
46 100.509819 12.039542 -7.992327 -38.708424 1.958050 5.461185 101.543350
[R_rear_hand03]
45 101.539970 5.215704 5.435467 84.307625 -2.361032 4.099037 101.819031
46 101.539970 5.215704 5.435467 84.307625 -2.361032 4.099037 101.819031
[Rope4_Seg01]
45 -0.000014 0.000009 -0.000220 85.930672 79.215881 -75.893440 0.000220
46 -0.000015 0.000008 -0.000221 86.213387 79.436302 -75.688728 0.000222
[Rope4_Seg02]
45 139.999985 0.000060 0.000119 4.551816 5.072965 -13.539717 139.999985
46 139.999985 0.000060 0.000119 4.497259 4.999130 -13.400950 139.999985
[Rope4_Seg03]
45 139.999924 0.000000 -0.000238 5.108705 10.754807 -44.247696 139.999924
46 139.999924 0.000000 -0.000238 5.138875 10.639922 -43.677464 139.999924
[Rope4_Seg04]
45 139.999985 0.000000 0.000119 -2.739834 3.530517 -38.963486 139.999985
46 139.999985 0.000000 0.000119 -2.711106 3.584177 -39.259743 139.999985
[Rope4_Seg05]
45 139.999802 -0.000060 -0.000119 -8.048561 5.614677 -29.096090 139.999802
46 139.999802 -0.000060 -0.000119 -7.906327 5.535698 -28.808655 139.999802
[Rope4_Seg06]
45 139.999924 0.000000 0.000060 -22.454756 14.250926 -49.663963 139.999924
46 139.999924 0.000000 0.000060 -22.475931 14.176003 -49.819435 139.999924
[Rope4_Seg07]
45 139.999802 0.000000 0.000000 -6.547761 10.696512 -16.439091 139.999802
46 139.999802 0.000000 0.000000 -6.662920 10.791277 -16.663670 139.999802
[Rope4_Seg08]
45 139.999924 0.000000 0.000119 -2.640530 3.100396 -3.876148 139.999924
46 139.999924 0.000000 0.000119 -2.660913 3.143034 -3.932212 139.999924
[Rope4_Seg09]
45 90.185791 0.000060 0.000060 -135.617828 2.228885 0.850567 90.185791
46 90.185791 0.000060 0.000060 -135.617828 2.228885 0.850567 90.185791
[L_rear_hand01]
45 101.696655 -8.392275 -7.654577 -38.746338 0.246096 177.290207 102.329041
46 101.696655 -8.392275 -7.654577 -38.746338 0.246096 177.290207 102.329041
[L_rear_hand02]
45 102.726799 -1.568258 5.773216 84.314880 -1.139137 176.250763 102.900848
46 102.726799 -1.568258 5.773216 84.314880 -1.139137 176.250763 102.900848
[L_rear_hand03]
45 104.552910 9.721220 -10.420293 -155.747955 -4.630845 179.564758 105.519653
46 104.552910 9.721220 -10.420293 -155.747955 -4.630845 179.564758 105.519653
